<svg xmlns="http://www.w3.org/2000/svg" viewBox="0 0 143.22 31.11"><defs><style>.cls-1{fill:#58595b}</style></defs><title>dr-reddy</title><g id="Шар_2" data-name="Шар 2"><path class="cls-1" d="M4.58 11.7H.49a.49.49 0 0 0-.49.49v14.27a.49.49 0 0 0 .49.49h4.08c4.34 0 7.55-2.8 7.55-7.62S8.93 11.7 4.58 11.7m-.12 12.5H3v-9.75h1.48C7 14.45 9 16 9 19.33S7 24.2 4.46 24.2m17.36-1a2 2 0 1 1-2 2 2 2 0 0 1 2-2m12.61-2.5a4.32 4.32 0 0 0 3.25-4.32 4.57 4.57 0 0 0-4.86-4.69h-5.47a.49.49 0 0 0-.49.49v14.28a.49.49 0 0 0 .49.49h2a.49.49 0 0 0 .49-.49v-5.39h1.56l2.75 5.38a.94.94 0 0 0 .74.49h2.31c.26 0 .38-.23.24-.49zm-2.17-2.19h-2.41v-4.23h2.41a2.13 2.13 0 1 1 0 4.24m-12.5-2.24a6.32 6.32 0 0 1 .67 0v2.92a4.27 4.27 0 0 0-.86-.08c-1.46 0-2.73.71-2.73 3v4.35a.49.49 0 0 1-.49.49h-1.89a.49.49 0 0 1-.48-.49v-9.63a.49.49 0 0 1 .48-.48h1.83a.49.49 0 0 1 .46.48v1.09a3.15 3.15 0 0 1 3-1.66m67 .57l-6.21 13.81a.93.93 0 0 1-.72.46h-2.06c-.27 0-.37-.21-.24-.49l2.27-5-4.26-8.76c-.15-.27-.06-.49.21-.49H78a1 1 0 0 1 .76.49l2.59 5.71 2.4-5.71a1 1 0 0 1 .76-.49h2.07c.26 0 .34.21.21.48M43.55 16a5.31 5.31 0 0 0-5.2 5.57 5.36 5.36 0 0 0 5.46 5.65 4.77 4.77 0 0 0 4.67-3 .37.37 0 0 0-.22-.47l-1.65-.5a.46.46 0 0 0-.51.22 2.32 2.32 0 0 1-2.26 1.28 2.58 2.58 0 0 1-2.67-2.41h7.12a.49.49 0 0 0 .48-.48v-.4c0-3.39-2-5.48-5.22-5.48m-2.32 4.41a2.29 2.29 0 0 1 2.37-2.09 2.13 2.13 0 0 1 2.4 2.15zm29.93-2.99c-.31-.56-1.18-1.29-3-1.29-3 0-5.08 2.43-5.08 5.53s2.15 5.57 5.16 5.57a3.31 3.31 0 0 0 3-1.48 9 9 0 0 0 .08 1 .3.3 0 0 0 .26.18h1.91a.49.49 0 0 0 .49-.49V11.86a.49.49 0 0 0-.49-.49h-1.84a.49.49 0 0 0-.49.49zm-2.54 7.24c-1.51 0-2.63-1.12-2.63-3a2.66 2.66 0 0 1 2.63-3c1.46 0 2.6 1.05 2.6 2.95s-1.14 3-2.6 3M58.44 17.4c-.31-.56-1.18-1.29-3-1.29-3 0-5.08 2.43-5.08 5.53s2.15 5.57 5.16 5.57a3.32 3.32 0 0 0 3-1.48 8.26 8.26 0 0 0 .08 1 .29.29 0 0 0 .26.18h1.92a.49.49 0 0 0 .48-.49V11.86a.49.49 0 0 0-.48-.49h-1.85a.49.49 0 0 0-.49.49zm-2.55 7.24c-1.5 0-2.62-1.12-2.62-3a2.65 2.65 0 0 1 2.62-3c1.46 0 2.6 1.05 2.6 2.95s-1.14 3-2.6 3m35.3-11c-.09.19-1.6 3.18-1.6 3.18a.31.31 0 0 1-.25.16h-1a.18.18 0 0 1-.18-.18l1-2.14A1.74 1.74 0 1 1 91.35 13a1.59 1.59 0 0 1-.15.71m30 6.78a1.56 1.56 0 1 1-1.56-1.56 1.57 1.57 0 0 1 1.56 1.56m1.8 9.75V8.95a8.24 8.24 0 0 0-4.83-7.31 8.6 8.6 0 0 0-3-.72C110 .65 106 3.7 105 7.82a9.92 9.92 0 0 0 1.57 8.07c2.12 3.11 10.84 11.37 15.05 15a.88.88 0 0 0 1.41-.7m6.54-11a3.89 3.89 0 1 1-3.89 3.89 3.89 3.89 0 0 1 3.89-3.89M125.64 28a1.34 1.34 0 1 1-1.34 1.34 1.34 1.34 0 0 1 1.34-1.34m11.28-18.23a5.16 5.16 0 1 1-5.16 5.16 5.16 5.16 0 0 1 5.16-5.16m3.59-6.36a2.71 2.71 0 1 1-2.71 2.71 2.71 2.71 0 0 1 2.71-2.71m-10.36 6.51a5 5 0 1 1 5-5 5 5 0 0 1-5 5m.19 4.36a2.95 2.95 0 1 1-2.95-2.95 3 3 0 0 1 2.95 2.95m-34.87 6.25c2.09.43 3.14 1.7 3.14 3.25 0 1.72-1.33 3.48-4.11 3.48s-4-1.59-4.31-2.8a.48.48 0 0 1 .33-.56l1.8-.4a.23.23 0 0 1 .26.16 1.77 1.77 0 0 0 1.9 1.4c.95 0 1.4-.5 1.4-1.06s-.33-.86-1.14-1l-1.4-.32c-2-.45-3-1.68-3-3.16a3.68 3.68 0 0 1 4-3.46c2.63 0 3.74 1.46 4.05 2.59a.48.48 0 0 1-.33.56l-1.54.35a.44.44 0 0 1-.54-.33 1.61 1.61 0 0 0-1.62-1A1.21 1.21 0 0 0 93 19.26c0 .51.39.84 1 1l1.5.32" id="Layer_1" data-name="Layer 1"/></g></svg>