<svg xmlns="http://www.w3.org/2000/svg" viewBox="0 0 51.6 51.6"><defs><style>.cls-1{fill:#fff}</style></defs><title>nose</title><g id="Шар_2" data-name="Шар 2"><g id="Layer_1" data-name="Layer 1"><path class="cls-1" d="M25.8 51.6a25.8 25.8 0 1 1 25.8-25.8 25.83 25.83 0 0 1-25.8 25.8zm0-50.69A24.89 24.89 0 1 0 50.69 25.8 24.91 24.91 0 0 0 25.8.91z"/><path class="cls-1" d="M24.76 38.52a6.55 6.55 0 0 1-4.87-2.11 3.79 3.79 0 0 0-2.18-1.1 2.17 2.17 0 0 0-.78.26 2.13 2.13 0 0 1-1.88.2c-2.38-1-3.21-4.42-2.34-6.63.74-1.86 3.09-3.59 3.74-4 .34-1.52 2.64-11.94 3-13.56.52-2.43 2.38-4.89 5.37-4.92 3 0 4.68 3.38 5 4.93s2.77 12 3.14 13.53c.85.53 4.27 2.87 4.27 6.44 0 1.66-1.78 4.2-3.12 4.45a3.38 3.38 0 0 1-2.21-.28 1.27 1.27 0 0 0-1.26 0 5 5 0 0 0-.87.65 7.65 7.65 0 0 1-5.01 2.14zm-7-4.17a4.51 4.51 0 0 1 2.83 1.37 5.54 5.54 0 0 0 4.21 1.84 6.74 6.74 0 0 0 4.4-2 5.27 5.27 0 0 1 1.1-.79 2.2 2.2 0 0 1 2 0 2.42 2.42 0 0 0 1.65.21c.83-.15 2.34-2.24 2.34-3.5 0-3.44-3.93-5.7-4-5.72l-.18-.1v-.2C32 25 29.2 13.4 28.88 11.73c-.21-1.11-1.57-4.15-4-4.15-2.63 0-4 2.26-4.44 4.16-.38 1.75-3 13.75-3 13.75v.19l-.16.11s-2.81 1.86-3.54 3.7 0 4.58 1.83 5.4c.34.15.62 0 1.09-.19a2.93 2.93 0 0 1 1.16-.35z"/><path class="cls-1" d="M20.4 27.67h-.1a.48.48 0 0 1-.37-.57l3.19-15a.48.48 0 1 1 .94.2l-3.19 15a.48.48 0 0 1-.47.37zM40.68 40a.47.47 0 0 1-.29-.1l-3.11-2.37a.48.48 0 0 1 .58-.76L41 39.13a.48.48 0 0 1-.29.86zm-4.14 2.57a.48.48 0 0 1-.38-.19l-1.93-2.58a.48.48 0 0 1 .77-.57l1.92 2.58a.48.48 0 0 1-.38.77zm-4.83 1.01a.48.48 0 0 1-.45-.31l-1.15-3a.48.48 0 0 1 .9-.34l1.15 3a.48.48 0 0 1-.28.62.49.49 0 0 1-.17.03z"/></g></g></svg>