<svg xmlns="http://www.w3.org/2000/svg" viewBox="0 0 51.6 51.6"><defs><style>.cls-1{fill:#fff}</style></defs><title>brush</title><g id="Шар_2" data-name="Шар 2"><g id="Layer_1" data-name="Layer 1"><path class="cls-1" d="M25.8 51.6a25.8 25.8 0 1 1 25.8-25.8 25.83 25.83 0 0 1-25.8 25.8zm0-50.69A24.89 24.89 0 1 0 50.69 25.8 24.91 24.91 0 0 0 25.8.91z"/><path class="cls-1" d="M31.52 36.77a2 2 0 0 0 1.56 0 1.93 1.93 0 0 0 1-2.21c-.28-1.29-1.61-1.16-2.25-2.07a10.86 10.86 0 0 1-1-2.22 10.86 10.86 0 0 0-1-2.05 4.23 4.23 0 0 0-.39-.49.22.22 0 0 0-.07-.16c-.48-.5-.78-1.16-1.39-1.51a.18.18 0 0 0 0-.06c0-1.38.06-3.52-1.14-4.32v-.05a.23.23 0 0 0 0-.11c0-2.94.3-5.87.45-8.8a28.48 28.48 0 0 0 0-3.47A4.09 4.09 0 0 0 26.63 7c-.5-.64-1-.06-1.31.45a11.15 11.15 0 0 0-.81 3.31 29.9 29.9 0 0 0 0 5.2 50.81 50.81 0 0 0 .06 5.6.25.25 0 0 0 0 .09c-1.2.79-1.19 3-1.18 4.23a.23.23 0 0 0 0 .12 3.4 3.4 0 0 0-2.33 1.4c-.34.39-.65.81-1 1.22a11.17 11.17 0 0 1-1.86 1.88c-.85.7-1.92 1-2.31 2.17a3.74 3.74 0 0 0 .11 2.48c.35.89.93 1.06 1.56.87-.8 1.27-1.55 3-.31 4.17s2.93-.67 3.32-1.87h.21c-.39 1.09-.31 2.32.85 2.85a1.93 1.93 0 0 0 2.37-.41 2.23 2.23 0 0 0 .26.2c.14.76 1.51.27 1.95.1a4 4 0 0 0 1.91-2.7c.52 2.12 2.17 4.27 4.51 3.65a2 2 0 0 0 1.32-2.36c-.23-1.42-1.64-1.91-2.43-2.87m1.48-.47a1.49 1.49 0 0 1-1.49-.09 4.25 4.25 0 0 1-.47-.27.21.21 0 0 0-.14-.1c-1.72-1.22-2-3.41-2.45-5.39-.16-.71-.17-1.73-.43-2.58.19.32.36.65.49.9a13.37 13.37 0 0 1 1 2.32 13.73 13.73 0 0 0 1 2.18c.63 1.13 1.92 2.76 3.15 1.63a1.55 1.55 0 0 1-.65 1.4m-1.49-3.4c.52.73 1.53.67 2 1.5-1.37 1.56-2.82-1.7-3.25-2.72a31.68 31.68 0 0 0-1.33-3.14 12.38 12.38 0 0 0-.68-1.17c1.79 1 2.12 3.89 3.28 5.54m-3.38-6.07a3.56 3.56 0 0 0-.68-.23l-.1-.05.23-.14a1.87 1.87 0 0 1 .55.42m-2.82-18a4.42 4.42 0 0 1 .54-1.42c.3-.47.52 0 .65.34a7.79 7.79 0 0 1 .32 2.53c0 1 0 2.09-.09 3.14-.15 2.68-.39 5.35-.41 8a2.35 2.35 0 0 0-.8-.1 2 2 0 0 0-.55.09 37.08 37.08 0 0 1-.07-4.43c0-1.59-.06-3.16-.06-4.74a15.51 15.51 0 0 1 .46-3.43M25.11 22h1.18a2.43 2.43 0 0 1 1 1.3 7.38 7.38 0 0 1 .14 2.67 3.42 3.42 0 0 1-2.55.52 1.42 1.42 0 0 1-.56-.28.2.2 0 0 0-.2-.13 1.22 1.22 0 0 0-.31-.14c0-1.33-.14-3.25 1.26-3.93m.52 8.92v.16a14.12 14.12 0 0 1-1.2 4.38 9.2 9.2 0 0 0 .55-2.26 24 24 0 0 0 .13-3V28.7a7.61 7.61 0 0 1 0-1.4 22 22 0 0 1 .52 3.48.23.23 0 0 0 0 .06M25.55 27h.16a4.53 4.53 0 0 1 .18 2 9.38 9.38 0 0 1-.34-2m-9.28 6.08c.24-1.17 1.42-1.55 2.26-2.22a13.16 13.16 0 0 0 2.3-2.34 6.92 6.92 0 0 1 1.5-1.6 12.64 12.64 0 0 0-1.49 2.91 7.8 7.8 0 0 1-2.33 2.79 15.83 15.83 0 0 0-2.33 1.66 4.46 4.46 0 0 1 .09-1.2m.32 2.29a1.35 1.35 0 0 1-.29-.5c.61-.93 1.77-1.34 2.62-2a8.39 8.39 0 0 0 1.82-2 15.19 15.19 0 0 0 1.11-2.19 4.77 4.77 0 0 1 1.24-1.87 10.2 10.2 0 0 0-.67.9 10.38 10.38 0 0 0-1.23 3 10 10 0 0 1-1.85 3.32c-.52.66-1.88 2.19-2.76 1.27m.6 4.1c-.64-1 .31-2.52.87-3.38a.2.2 0 0 0 0-.25A7.53 7.53 0 0 0 20 34a11.33 11.33 0 0 0 1.84-3.81 7.5 7.5 0 0 1 .89-2.09 4.14 4.14 0 0 1 1.35-1.5l.26.17c-1 .72-1.44 2.17-1.88 3.25-.28.68-.58 1.35-.9 2a.19.19 0 0 0-.17.16 2.47 2.47 0 0 1-.14.44c-.14.26-.29.52-.46.76-.62.78-1.53 1.4-2.08 2.18a8.79 8.79 0 0 0-1.53 3.9m6.72-11.57c-.12.5-.18 1-.26 1.44-.2 1.06-.32 2.14-.53 3.2-.36 1.78-1.22 3.8-3.09 4.4a.21.21 0 0 0-.1.06 2.61 2.61 0 0 1 0-1.22 16.74 16.74 0 0 1 1.4-2.28 3.42 3.42 0 0 0 .36-.61c.37-.68.67-1.39 1-2.1a19.6 19.6 0 0 1 1.26-2.87m-3.85 10.26c-.33 1-1.51 2.39-2.47 1.74a7.76 7.76 0 0 1 1.85-4.55 2.44 2.44 0 0 0 .6 2.8v.06m0-.79h.06a.21.21 0 0 0 .17-.08 5.28 5.28 0 0 0 2.92-3.5 17.42 17.42 0 0 0 .62-3c.1-.63.2-1.26.33-1.89a5 5 0 0 1 .48-1.7 6.14 6.14 0 0 0-.07 1v2.26A13.53 13.53 0 0 1 24 35a4.24 4.24 0 0 1-2.41 2.73 1.17 1.17 0 0 1-1.53-.39m1 2.69a2.6 2.6 0 0 1 .16-1.7 3.92 3.92 0 0 0 1.85-.92 4.52 4.52 0 0 0 1.1-1.41 12.64 12.64 0 0 0-.67 1.83 8 8 0 0 1-2.42 2.25m.64.69a1.24 1.24 0 0 1-.43-.32.25.25 0 0 0 .11-.05 15.94 15.94 0 0 0 1.92-1.56 2.45 2.45 0 0 0 .36 1.55c-.33.73-1.34.66-2 .37m2.64-.31a2.22 2.22 0 0 1-.49-2.33v-.08a.23.23 0 0 0 0-.18 24.86 24.86 0 0 1 1.36-3.27 14.43 14.43 0 0 0 .85-4.1c.07-.63.2-1.32.23-2a9.33 9.33 0 0 1 .23 1.34 15.34 15.34 0 0 1-.28 3.73 33.52 33.52 0 0 1-2 6.89m2.91-1.19A3 3 0 0 1 26 40.57c-.13.07-1.42.49-1.43.27a34.51 34.51 0 0 0 2.23-8.21 12.67 12.67 0 0 0 0-3.49 12.57 12.57 0 0 1 .43 1.78 24.83 24.83 0 0 1 .77 4.69 8 8 0 0 1-.75 3.66m5.63 2.11c-1.17.83-2.63-.09-3.35-1a5.76 5.76 0 0 1-1.14-3.26 11.08 11.08 0 0 0 .09-1.57 9.1 9.1 0 0 0 4.82 5.47 1.54 1.54 0 0 1-.42.43m.6-.85c-2.87-1.17-4.43-4.11-5.09-7a.22.22 0 0 0 0-.1c0-.25-.06-.5-.1-.74-.15-1-.38-2-.61-3a11.62 11.62 0 0 0-.48-1.44 11.76 11.76 0 0 0-.61-1.06 1.31 1.31 0 0 0-.12-.3.21.21 0 0 0 .12 0h.36c.81.49.91 2.07 1 2.88a18 18 0 0 0 .84 3.9 6.16 6.16 0 0 0 1.93 2.54 5.48 5.48 0 0 0 1.86 1.95 2.48 2.48 0 0 1 .91 2.27"/><path class="cls-1" d="M25.88 9.79a.23.23 0 0 0 .28-.16 1.62 1.62 0 0 0 .08-.89.23.23 0 0 0-.24-.16.59.59 0 0 0-.47.4.51.51 0 0 0 0 .34.53.53 0 0 0 .36.48"/></g></g></svg>