<svg xmlns="http://www.w3.org/2000/svg" viewBox="0 0 51.6 51.6"><defs><style>.cls-1{fill:#fff}</style></defs><title>kulba</title><g id="Шар_2" data-name="Шар 2"><g id="Layer_1" data-name="Layer 1"><path class="cls-1" d="M25.8 51.6a25.8 25.8 0 1 1 25.8-25.8 25.83 25.83 0 0 1-25.8 25.8zm0-50.69A24.89 24.89 0 1 0 50.69 25.8 24.91 24.91 0 0 0 25.8.91z"/><path class="cls-1" d="M23.6 9.65h.23v8.74h-.23z"/><path class="cls-1" d="M23.71 9.76c-1.68 0-1.83-1.95-1.83-2h.22a2.77 2.77 0 0 0 .25.9 1.43 1.43 0 0 0 1.35.86 1.6 1.6 0 0 0 1.44-.87 3 3 0 0 0 .33-.9h.22s-.31 2-2 2"/><path class="cls-1" d="M23.71 9.76a1.85 1.85 0 0 1-1.25-1.32 4.56 4.56 0 0 1-.23-1.07h.23s.15 1.89 1.27 2.19A2.71 2.71 0 0 0 25 7.76l.22.06a2.83 2.83 0 0 1-1.42 1.94"/><path class="cls-1" d="M23.71 9.76a.11.11 0 0 1-.08 0 5.15 5.15 0 0 1-1-2.54h.22a5.38 5.38 0 0 0 .79 2.28 8.42 8.42 0 0 0 .86-2.28h.23a9.43 9.43 0 0 1-1 2.51.13.13 0 0 1-.09.06z"/><path class="cls-1" d="M23.71 9.76a.11.11 0 0 1-.11-.08 10.1 10.1 0 0 1-.37-2.63h.23a10.77 10.77 0 0 0 .23 2.11 10 10 0 0 0 .2-2h.23a11.83 11.83 0 0 1-.31 2.5.11.11 0 0 1-.11.09zm-.04 8.64l-1.01-5.71.15-.03 1.01 5.72-.15.02z"/><path class="cls-1" d="M22.52 12.77c-.93 0-1.2-1.08-1.2-1.1h.15a1.73 1.73 0 0 0 .27.56 1 1 0 0 0 1 .41 1.06 1.06 0 0 0 .84-.73 1.84 1.84 0 0 0 .11-.62h.15a2 2 0 0 1-.12.68 1.22 1.22 0 0 1-1 .84h-.23"/><path class="cls-1" d="M22.73 12.75c-.9 0-1.23-1.34-1.25-1.4h.15s.31 1.22 1.08 1.28a1.79 1.79 0 0 0 .62-1.3h.15a1.88 1.88 0 0 1-.71 1.43"/><path class="cls-1" d="M22.73 12.75a3.42 3.42 0 0 1-.92-1.54h.14a3.59 3.59 0 0 0 .78 1.4A5.94 5.94 0 0 0 23 11h.15a6.18 6.18 0 0 1-.34 1.75.07.07 0 0 1 0 .05"/><path class="cls-1" d="M22.73 12.75a.08.08 0 0 1-.07 0 6.77 6.77 0 0 1-.54-1.75h.15a7.53 7.53 0 0 0 .4 1.35 6.42 6.42 0 0 0-.1-1.35h.15a8 8 0 0 1 .09 1.67.09.09 0 0 1-.06.07z"/><path class="cls-1" transform="rotate(-29.99 22.296 15.875)" d="M22.21 12.97h.15v5.81h-.15z"/><path class="cls-1" d="M20.31 13.59a1.59 1.59 0 0 1-1.14-.69l.13-.08a1.77 1.77 0 0 0 .44.43.94.94 0 0 0 1.07 0 1.06 1.06 0 0 0 .54-1 2 2 0 0 0-.11-.63l.14-.06a2.09 2.09 0 0 1 .12.68 1.21 1.21 0 0 1-.61 1.11 1.14 1.14 0 0 1-.57.16"/><path class="cls-1" d="M20.59 13.48c-.74 0-1.35-.89-1.38-.93l.13-.09s.71 1 1.46.83a1.81 1.81 0 0 0 .13-1.43h.15a1.89 1.89 0 0 1-.17 1.59.85.85 0 0 1-.27 0"/><path class="cls-1" d="M20.84 13.44a3.45 3.45 0 0 1-1.39-1.14l.12-.09a3.56 3.56 0 0 0 1.21 1 5.77 5.77 0 0 0-.26-1.6l.14-.06a6.23 6.23 0 0 1 .28 1.77.09.09 0 0 1 0 .06"/><path class="cls-1" d="M20.84 13.44a.07.07 0 0 1-.05 0A6.88 6.88 0 0 1 19.7 12l.13-.08a7.23 7.23 0 0 0 .83 1.13 6.74 6.74 0 0 0-.54-1.2l.13-.08a7.45 7.45 0 0 1 .65 1.54.07.07 0 0 1 0 .08m2.79 5.06l-4.44-3.74.09-.11 4.45 3.73-.1.12z"/><path class="cls-1" d="M18.51 15.11a1.79 1.79 0 0 1-.94-.32l.09-.12a1.89 1.89 0 0 0 .57.25.94.94 0 0 0 1-.32c.64-.75-.14-1.64-.14-1.65l.11-.1a2 2 0 0 1 .34.6 1.21 1.21 0 0 1-.2 1.26 1.06 1.06 0 0 1-.84.41"/><path class="cls-1" d="M18.74 14.91a2.48 2.48 0 0 1-1.25-.46l.09-.12s1 .73 1.65.29a1.79 1.79 0 0 0-.36-1.4l.12-.09a1.86 1.86 0 0 1 .38 1.55 1 1 0 0 1-.6.2"/><path class="cls-1" d="M19.22 14.74a3.56 3.56 0 0 1-1.62-.6l.09-.13a3.45 3.45 0 0 0 1.5.57 5.58 5.58 0 0 0-.79-1.41l.11-.11a6.35 6.35 0 0 1 .87 1.56.08.08 0 0 1 0 .07.09.09 0 0 1-.06 0h-.08"/><path class="cls-1" d="M19.3 14.73a6.75 6.75 0 0 1-1.49-.94l.1-.12a7 7 0 0 0 1.17.78 6.48 6.48 0 0 0-.92-.94l.09-.12a7.89 7.89 0 0 1 1.14 1.22.08.08 0 0 1 0 .09.08.08 0 0 1-.06 0m4.38 3.76l-5.45-1.98.05-.15 5.46 1.99-.06.14z"/><path class="cls-1" d="M17.19 17.19a1.93 1.93 0 0 1-.47-.06v-.15a1.72 1.72 0 0 0 .62 0 .94.94 0 0 0 .84-.65c.34-.93-.69-1.5-.7-1.51l.07-.13a2 2 0 0 1 .53.44 1.21 1.21 0 0 1 .24 1.25 1.14 1.14 0 0 1-1.16.76"/><path class="cls-1" d="M17.26 16.93a2.83 2.83 0 0 1-.74-.1v-.15s1.21.34 1.65-.3a1.77 1.77 0 0 0-.82-1.19l.08-.12a1.88 1.88 0 0 1 .89 1.33 1.22 1.22 0 0 1-1.09.48"/><path class="cls-1" d="M17.5 16.61a4.86 4.86 0 0 1-1-.11v-.15a3.66 3.66 0 0 0 1.6 0 5.39 5.39 0 0 0-1.23-1.06l.06-.14a6.3 6.3 0 0 1 1.35 1.17.08.08 0 0 1 0 .12 2.11 2.11 0 0 1-.82.14"/><path class="cls-1" d="M18.29 16.48a6.56 6.56 0 0 1-1.72-.37l.05-.14a7.16 7.16 0 0 0 1.38.33 6.68 6.68 0 0 0-1.19-.57v-.15a8.33 8.33 0 0 1 1.49.76.08.08 0 0 1 0 .14m-.36 1.83h5.8v.15h-5.8z"/><path class="cls-1" d="M16.7 19.61v-.15a1.84 1.84 0 0 0 .59-.17 1 1 0 0 0 .57-.9 1.06 1.06 0 0 0-.58-1 1.9 1.9 0 0 0-.59-.22v-.15a2.06 2.06 0 0 1 .64.24 1.21 1.21 0 0 1 .67 1.13c0 1.12-1.29 1.22-1.31 1.22"/><path class="cls-1" d="M16.42 19.39v-.15s1.26-.09 1.45-.84a1.81 1.81 0 0 0-1.18-.83v-.15a1.88 1.88 0 0 1 1.29.94c-.2.88-1.54 1-1.59 1"/><path class="cls-1" d="M16.3 19.08v-.15a3.59 3.59 0 0 0 1.52-.53 5.57 5.57 0 0 0-1.52-.57v-.15a6.15 6.15 0 0 1 1.67.64.07.07 0 0 1 0 .06.07.07 0 0 1 0 .06 3.4 3.4 0 0 1-1.68.64"/><path class="cls-1" d="M16.21 18.71v-.15a7.44 7.44 0 0 0 1.4-.16 6.63 6.63 0 0 0-1.31-.14v-.15a7.84 7.84 0 0 1 1.66.2.07.07 0 0 1 .06.07.08.08 0 0 1 0 .08 6.72 6.72 0 0 1-1.75.25m2.04 1.73l-.05-.14 5.45-1.98.06.14-5.46 1.98z"/><path class="cls-1" d="M17.54 21.94l-.06-.14a1.81 1.81 0 0 0 .5-.36 1 1 0 0 0 .23-1c-.34-.92-1.5-.71-1.51-.7v-.15a2 2 0 0 1 .69 0 1.21 1.21 0 0 1 1 .8c.38 1-.8 1.58-.81 1.59"/><path class="cls-1" d="M17.2 21.84l-.06-.14s1.15-.52 1.07-1.29a1.79 1.79 0 0 0-1.39-.41v-.15a1.87 1.87 0 0 1 1.53.44c.12.89-1.1 1.45-1.16 1.47"/><path class="cls-1" d="M17 21.58l-.07-.14a3.58 3.58 0 0 0 1.24-1 5.6 5.6 0 0 0-1.62 0v-.15a6.28 6.28 0 0 1 1.79 0 .07.07 0 0 1 .06 0 .08.08 0 0 1 0 .07 3.42 3.42 0 0 1-1.4 1.22"/><path class="cls-1" d="M16.78 21.26v-.14A7.21 7.21 0 0 0 18 20.5a6.39 6.39 0 0 0-1.28.32l-.06-.14a7.44 7.44 0 0 1 1.63-.38.08.08 0 0 1 .08 0 .08.08 0 0 1 0 .09 6.56 6.56 0 0 1-1.56.83m2.53.96l-.09-.11 4.44-3.74.1.12-4.45 3.73z"/><path class="cls-1" d="M19.13 23.85l-.1-.11a1.76 1.76 0 0 0 .34-.51 1 1 0 0 0-.14-1.06 1.06 1.06 0 0 0-1.06-.36 2 2 0 0 0-.6.21l-.08-.13a1.91 1.91 0 0 1 .65-.24 1.22 1.22 0 0 1 1.2.41c.72.86-.21 1.77-.22 1.78"/><path class="cls-1" d="M18.78 23.86l-.11-.11s.9-.88.57-1.58a1.81 1.81 0 0 0-1.44.12l-.07-.14a1.86 1.86 0 0 1 1.6-.11c.41.8-.55 1.74-.59 1.78"/><path class="cls-1" d="M18.49 23.7l-.11-.11a3.56 3.56 0 0 0 .82-1.38 5.72 5.72 0 0 0-1.53.53l-.08-.12a6.44 6.44 0 0 1 1.69-.62.08.08 0 0 1 .09.08 3.42 3.42 0 0 1-.88 1.57"/><path class="cls-1" d="M18.18 23.47l-.1-.11a7.15 7.15 0 0 0 1-1 6.32 6.32 0 0 0-1.09.74l-.1-.11a7.25 7.25 0 0 1 1.4-.91.08.08 0 0 1 .09 0 .09.09 0 0 1 0 .09 6.54 6.54 0 0 1-1.18 1.31"/><path class="cls-1" transform="rotate(-60.26 22.29 20.907)" d="M19.39 20.83h5.81v.15h-5.81z"/><path class="cls-1" d="M21.28 25.09l-.14-.09a1.65 1.65 0 0 0 .15-.6 1 1 0 0 0-.49-.95c-.85-.49-1.6.42-1.6.43l-.12-.1a2.12 2.12 0 0 1 .53-.44 1.21 1.21 0 0 1 1.27 0c1 .56.41 1.73.4 1.74"/><path class="cls-1" d="M21 25.23l-.14-.07s.54-1.14 0-1.68a1.79 1.79 0 0 0-1.32.6l-.15-.08a1.88 1.88 0 0 1 1.46-.64c.67.61.09 1.82.06 1.87"/><path class="cls-1" d="M20.63 25.18l-.14-.06a3.54 3.54 0 0 0 .3-1.57 5.67 5.67 0 0 0-1.25 1l-.12-.09a6.2 6.2 0 0 1 1.39-1.12.08.08 0 0 1 .11 0 3.43 3.43 0 0 1-.29 1.78"/><path class="cls-1" d="M20.25 25.07l-.13-.07a7.35 7.35 0 0 0 .56-1.29 6.62 6.62 0 0 0-.77 1.07l-.13-.07a7.52 7.52 0 0 1 1-1.34.07.07 0 0 1 .09 0 .08.08 0 0 1 0 .08 6.59 6.59 0 0 1-.66 1.63m2.6-.96l-.15-.03 1.01-5.71.15.02-1.01 5.72z"/><path class="cls-1" d="M23.72 25.53h-.15a1.81 1.81 0 0 0-.06-.61 1 1 0 0 0-.79-.72 1.06 1.06 0 0 0-1 .4 1.92 1.92 0 0 0-.32.55h-.15a2.1 2.1 0 0 1 .35-.59 1.22 1.22 0 0 1 1.15-.56c1.1.2 1 1.49 1 1.5"/><path class="cls-1" d="M23.46 25.78h-.15s.12-1.25-.58-1.57a1.81 1.81 0 0 0-1 1l-.14-.06A1.88 1.88 0 0 1 22.72 24c.83.34.7 1.68.7 1.74"/><path class="cls-1" d="M23.13 25.83H23a3.56 3.56 0 0 0-.26-1.58 5.63 5.63 0 0 0-.83 1.39h-.15a6.3 6.3 0 0 1 .92-1.53.09.09 0 0 1 .07 0 .08.08 0 0 1 .06 0 3.4 3.4 0 0 1 .34 1.77"/><path class="cls-1" d="M22.75 25.86h-.15a7.41 7.41 0 0 0 .09-1.4 6.44 6.44 0 0 0-.36 1.27h-.15a7.79 7.79 0 0 1 .49-1.6.08.08 0 0 1 .08 0 .08.08 0 0 1 .07.07 6.53 6.53 0 0 1-.06 1.76m1.92-1.84l-1.01-5.72.15-.02 1.01 5.71-.15.03z"/><path class="cls-1" d="M23.66 25.54a2 2 0 0 1 .12-.68 1.21 1.21 0 0 1 1-.84c1.1-.19 1.42 1.07 1.42 1.08h-.15a1.75 1.75 0 0 0-.27-.56.94.94 0 0 0-1-.41c-1 .17-1 1.35-1 1.36z"/><path class="cls-1" d="M24.15 25.49H24a1.89 1.89 0 0 1 .7-1.43c.9 0 1.23 1.34 1.25 1.4h-.15s-.32-1.22-1.08-1.28a1.8 1.8 0 0 0-.62 1.3"/><path class="cls-1" d="M24.34 25.84a6.41 6.41 0 0 1 .34-1.76.07.07 0 0 1 .05 0 .07.07 0 0 1 .07 0 3.41 3.41 0 0 1 .92 1.55h-.14a3.52 3.52 0 0 0-.79-1.4 5.88 5.88 0 0 0-.3 1.59z"/><path class="cls-1" d="M25.21 25.78a7 7 0 0 0-.39-1.35 6.2 6.2 0 0 0 .09 1.32h-.15a7.86 7.86 0 0 1-.09-1.67.08.08 0 0 1 .14 0 7 7 0 0 1 .54 1.68z"/><path class="cls-1" transform="matrix(.87 -.5 .5 .87 -7.08 15.41)" d="M25.12 18h.15v5.8h-.15z"/><path class="cls-1" d="M26.11 25.14a1.94 1.94 0 0 1-.11-.68 1.21 1.21 0 0 1 .61-1.11c1-.56 1.7.51 1.71.52l-.13.08a1.76 1.76 0 0 0-.44-.43 1 1 0 0 0-1.07 0 1.06 1.06 0 0 0-.54 1 1.92 1.92 0 0 0 .11.62z"/><path class="cls-1" d="M26.41 25a1.89 1.89 0 0 1 .17-1.59c.86-.27 1.62.83 1.65.88l-.12.09s-.72-1-1.46-.83a1.81 1.81 0 0 0-.14 1.44z"/><path class="cls-1" d="M26.85 25.18a6.12 6.12 0 0 1-.28-1.76.07.07 0 0 1 0-.06.08.08 0 0 1 .07 0 3.42 3.42 0 0 1 1.4 1.14l-.12.09a3.58 3.58 0 0 0-1.22-1 5.65 5.65 0 0 0 .3 1.53z"/><path class="cls-1" d="M27.22 25a7.86 7.86 0 0 1-.65-1.54.08.08 0 0 1 0-.09.08.08 0 0 1 .09 0 6.83 6.83 0 0 1 1.09 1.39l-.13.08a7.47 7.47 0 0 0-.84-1.13 6.45 6.45 0 0 0 .53 1.2zm.92-2.82l-4.45-3.73.1-.12 4.45 3.74-.1.11z"/><path class="cls-1" d="M28.27 23.92a2.09 2.09 0 0 1-.34-.6 1.22 1.22 0 0 1 .2-1.26c.72-.85 1.78-.1 1.78-.09l-.09.12a1.71 1.71 0 0 0-.56-.25 1 1 0 0 0-1 .32c-.63.75.13 1.65.14 1.65z"/><path class="cls-1" d="M28.5 23.65a1.88 1.88 0 0 1-.38-1.55c.71-.55 1.81.24 1.85.27l-.09.12s-1-.73-1.65-.29a1.82 1.82 0 0 0 .37 1.4z"/><path class="cls-1" d="M29 23.71a6.3 6.3 0 0 1-.86-1.56.07.07 0 0 1 0-.07.08.08 0 0 1 .06 0 3.49 3.49 0 0 1 1.7.6l-.08.13a3.56 3.56 0 0 0-1.5-.57 5.6 5.6 0 0 0 .79 1.41z"/><path class="cls-1" d="M29.27 23.39a7.72 7.72 0 0 1-1.14-1.22.07.07 0 0 1 0-.09.08.08 0 0 1 .09 0 6.6 6.6 0 0 1 1.5.93l-.1.11a7.14 7.14 0 0 0-1.17-.78 6.84 6.84 0 0 0 .92.95zm-.1-2.95l-5.46-1.98.06-.14 5.45 1.98-.05.14z"/><path class="cls-1" d="M29.9 22a2.07 2.07 0 0 1-.53-.44 1.21 1.21 0 0 1-.24-1.24c.38-1.05 1.64-.7 1.65-.7v.15a1.71 1.71 0 0 0-.62 0 1 1 0 0 0-.84.65c-.34.93.69 1.5.7 1.51z"/><path class="cls-1" d="M30 21.71a1.88 1.88 0 0 1-.89-1.33c.48-.76 1.78-.4 1.83-.39v.15s-1.21-.34-1.65.29a1.83 1.83 0 0 0 .82 1.19z"/><path class="cls-1" d="M30.49 21.6a6.44 6.44 0 0 1-1.35-1.17.08.08 0 0 1 0-.12 3.43 3.43 0 0 1 1.8 0v.14a3.57 3.57 0 0 0-1.6 0 5.56 5.56 0 0 0 1.23 1.06z"/><path class="cls-1" d="M30.65 21.2a8.18 8.18 0 0 1-1.49-.76.08.08 0 0 1 0-.09.08.08 0 0 1 .08-.05 6.71 6.71 0 0 1 1.72.37v.14a7.16 7.16 0 0 0-1.37-.33 6.47 6.47 0 0 0 1.18.58zm-6.91-2.89h5.81v.15h-5.81z"/><path class="cls-1" d="M30.78 19.71a1.92 1.92 0 0 1-.64-.24 1.21 1.21 0 0 1-.66-1.09c0-1.12 1.29-1.22 1.31-1.22v.15a1.76 1.76 0 0 0-.6.17 1 1 0 0 0-.57.9c0 1 1.16 1.17 1.17 1.18z"/><path class="cls-1" d="M30.77 19.36a1.86 1.86 0 0 1-1.29-.94c.2-.88 1.53-1 1.59-1v.15s-1.26.1-1.45.84a1.78 1.78 0 0 0 1.17.84z"/><path class="cls-1" d="M31.18 19.1a6.23 6.23 0 0 1-1.67-.64.07.07 0 0 1 0-.06.08.08 0 0 1 0-.06 3.39 3.39 0 0 1 1.68-.64v.15a3.55 3.55 0 0 0-1.51.53 5.74 5.74 0 0 0 1.51.57z"/><path class="cls-1" d="M31.07 18.67a8.48 8.48 0 0 1-1.54-.2.07.07 0 0 1-.06-.07.08.08 0 0 1 .05-.07 6.65 6.65 0 0 1 1.75-.25v.16a7.52 7.52 0 0 0-1.4.15 6.45 6.45 0 0 0 1.32.14v.15zm-5.45-.83l-.05-.14 5.45-1.99.05.15-5.45 1.98z"/><path class="cls-1" d="M32.31 16.64a1.92 1.92 0 0 1-.35 0 1.22 1.22 0 0 1-1-.8c-.38-1.05.8-1.59.81-1.59l.06.14a1.78 1.78 0 0 0-.5.36.94.94 0 0 0-.24 1c.34.93 1.49.71 1.51.71v.15a1.82 1.82 0 0 1-.34 0"/><path class="cls-1" d="M32.27 16.29a1.78 1.78 0 0 1-1.27-.45c-.12-.89 1.11-1.45 1.16-1.47l.06.14s-1.22.49-1.1 1.24a1.78 1.78 0 0 0 1.39.38v.15h-.25"/><path class="cls-1" d="M32.2 15.95a9.53 9.53 0 0 1-1.2-.09.08.08 0 0 1-.05 0 .07.07 0 0 1 0-.07 3.49 3.49 0 0 1 1.36-1.18l.07.14a3.57 3.57 0 0 0-1.24 1 5.59 5.59 0 0 0 1.61 0v.15a2.83 2.83 0 0 1-.62.06"/><path class="cls-1" d="M31 15.86a.08.08 0 0 1-.07 0 .08.08 0 0 1 0-.09 6.62 6.62 0 0 1 1.55-.83l.05.14a7.06 7.06 0 0 0-1.26.62 6.24 6.24 0 0 0 1.27-.32l.06.14a7.61 7.61 0 0 1-1.63.38zm-3.48-.4l-.09-.12 4.44-3.73.1.11-4.45 3.74z"/><path class="cls-1" d="M32.8 12.15a1.2 1.2 0 0 1-.94-.43c-.72-.86.21-1.77.22-1.78l.1.11a1.79 1.79 0 0 0-.35.51 1 1 0 0 0 .17 1.06c.63.76 1.65.15 1.65.15l.08.13a2.14 2.14 0 0 1-.64.23h-.27"/><path class="cls-1" d="M32.53 11.86a1.49 1.49 0 0 1-.64-.13c-.41-.8.55-1.74.59-1.78l.1.1s-.9.89-.57 1.58a1.8 1.8 0 0 0 1.44-.12l.07.14a2.18 2.18 0 0 1-1 .23"/><path class="cls-1" d="M31.92 11.75h-.05a.07.07 0 0 1 0-.06 3.47 3.47 0 0 1 .88-1.57l.11.1a3.67 3.67 0 0 0-.86 1.35 5.8 5.8 0 0 0 1.54-.57l.09.12a6.19 6.19 0 0 1-1.69.58"/><path class="cls-1" d="M31.92 11.75a.08.08 0 0 1-.06 0 .07.07 0 0 1 0-.09A6.49 6.49 0 0 1 33 10.32l.1.12a7.42 7.42 0 0 0-1 1 6.46 6.46 0 0 0 1.1-.74l.1.11a7.47 7.47 0 0 1-1.4.91"/><path class="cls-1" transform="rotate(-60.01 25.193 15.876)" d="M22.29 15.8h5.81v.15h-5.81z"/><path class="cls-1" d="M27.21 13.59a1.19 1.19 0 0 1-.6-.17c-1-.56-.41-1.73-.4-1.74l.14.07a1.74 1.74 0 0 0-.15.6.94.94 0 0 0 .49.94c.86.49 1.6-.42 1.6-.43l.12.09a2.05 2.05 0 0 1-.53.44 1.32 1.32 0 0 1-.67.19"/><path class="cls-1" d="M26.72 13.44h-.08c-.66-.6-.08-1.82-.06-1.87l.14.06s-.54 1.14 0 1.68a1.81 1.81 0 0 0 1.31-.6l.11.11a1.93 1.93 0 0 1-1.38.65"/><path class="cls-1" d="M26.65 13.44a.08.08 0 0 1 0-.05 3.42 3.42 0 0 1 .29-1.77l.14.06a3.56 3.56 0 0 0-.3 1.57 5.78 5.78 0 0 0 1.26-1l.12.09a6.23 6.23 0 0 1-1.39 1.12"/><path class="cls-1" d="M26.65 13.44a.08.08 0 0 1 0-.08 6.78 6.78 0 0 1 .66-1.64l.13.08a7.4 7.4 0 0 0-.56 1.29 6.39 6.39 0 0 0 .69-1.09l.13.07a7.94 7.94 0 0 1-1 1.34h-.05m-2.83 4.99l-.15-.02 1.01-5.72.15.03-1.01 5.71z"/><path class="cls-1" d="M25 12.77h-.22c-1.1-.2-1-1.49-1-1.5h.15a1.69 1.69 0 0 0 .06.61 1 1 0 0 0 .79.72c1 .17 1.35-.94 1.36-.95h.15a2.16 2.16 0 0 1-.34.59 1.23 1.23 0 0 1-1 .48"/><path class="cls-1" d="M24.75 12.75C23.89 12.4 24 11.06 24 11h.15s-.12 1.26.58 1.57a1.78 1.78 0 0 0 1-1l.14.06a1.89 1.89 0 0 1-1.15 1.11z"/><path class="cls-1" d="M24.75 12.75a.08.08 0 0 1-.06 0 3.4 3.4 0 0 1-.33-1.77h.15a3.54 3.54 0 0 0 .25 1.58 5.47 5.47 0 0 0 .83-1.39h.15a6.26 6.26 0 0 1-.92 1.53.07.07 0 0 1-.06 0"/><path class="cls-1" d="M24.75 12.75a.08.08 0 0 1-.07-.07 6.47 6.47 0 0 1 .06-1.76h.15a7.24 7.24 0 0 0-.09 1.4 6.57 6.57 0 0 0 .36-1.27h.15a7.56 7.56 0 0 1-.49 1.6.08.08 0 0 1-.07 0m-1.14 5.78l-2.99-8.21.21-.08 2.99 8.22-.21.07z"/><path class="cls-1" d="M20.15 10.4c-1.18 0-1.77-1.32-1.78-1.34l.2-.06a2.82 2.82 0 0 0 .55.76 1.43 1.43 0 0 0 1.57.34 1.59 1.59 0 0 0 1.06-1.31 3 3 0 0 0 0-1h.22s.37 1.95-1.2 2.53a1.87 1.87 0 0 1-.62.11"/><path class="cls-1" d="M20.56 10.3a2 2 0 0 1-1.45-.82 4.4 4.4 0 0 1-.59-.93l.21-.1s.79 1.73 1.94 1.62A2.7 2.7 0 0 0 21.25 8h.23a2.82 2.82 0 0 1-.67 2.31h-.24"/><path class="cls-1" d="M20.72 10.29a5.13 5.13 0 0 1-1.77-2.05l.2-.1A5.37 5.37 0 0 0 20.63 10a8.45 8.45 0 0 0 0-2.44l.22-.06a9.48 9.48 0 0 1 0 2.69.11.11 0 0 1-.06.09h-.05"/><path class="cls-1" d="M20.72 10.29a.12.12 0 0 1-.09 0 10.29 10.29 0 0 1-1.24-2.39l.21-.08a11 11 0 0 0 .94 1.9 9.88 9.88 0 0 0-.48-1.93l.21-.09a11.45 11.45 0 0 1 .56 2.46.11.11 0 0 1-.07.12m2.87 8.19l-5.62-6.7.17-.15 5.62 6.7-.17.15z"/><path class="cls-1" d="M17.1 12.19a2.58 2.58 0 0 1-1.61-.74l.17-.16a2.77 2.77 0 0 0 .77.52 1.44 1.44 0 0 0 1.57-.2c1.14-1 .23-2.48.22-2.49l.2-.12s1 1.71-.27 2.78a1.61 1.61 0 0 1-1.07.41"/><path class="cls-1" d="M17.5 12a2.36 2.36 0 0 1-1.16-.36 4.41 4.41 0 0 1-.87-.67l.16-.16s1.37 1.3 2.37.8a2.71 2.71 0 0 0-.17-2.17l.2-.1a2.83 2.83 0 0 1 .16 2.4 1.37 1.37 0 0 1-.65.15"/><path class="cls-1" d="M18.09 11.81a5.13 5.13 0 0 1-2.37-1.33l.16-.16A5.38 5.38 0 0 0 18 11.56a8.7 8.7 0 0 0-.81-2.31l.19-.13a9.39 9.39 0 0 1 .88 2.55.11.11 0 0 1 0 .1.11.11 0 0 1-.08 0"/><path class="cls-1" d="M18.09 11.81h-.06a10.27 10.27 0 0 1-2-1.78l.17-.15a10.7 10.7 0 0 0 1.54 1.46 9.76 9.76 0 0 0-1.12-1.65l.17-.15a11.63 11.63 0 0 1 1.37 2.11.11.11 0 0 1 0 .14.14.14 0 0 1-.08 0m5.58 6.7l-7.57-4.37.11-.2 7.57 4.38-.11.19z"/><path class="cls-1" d="M14.75 14.93a3 3 0 0 1-1.13-.25l.1-.21a2.64 2.64 0 0 0 .9.23A1.43 1.43 0 0 0 16 14c.74-1.28-.63-2.41-.65-2.42l.14-.18s1.54 1.25.7 2.71a1.63 1.63 0 0 1-1.49.85"/><path class="cls-1" d="M15 14.57a2.91 2.91 0 0 1-.55-.05 4.75 4.75 0 0 1-1-.33l.1-.2s1.71.82 2.52 0a2.7 2.7 0 0 0-.9-2l.16-.16a2.81 2.81 0 0 1 1 2.2.09.09 0 0 1 0 .06 1.57 1.57 0 0 1-1.22.47"/><path class="cls-1" d="M15.61 14.19a6.24 6.24 0 0 1-2.12-.49l.1-.21a5.34 5.34 0 0 0 2.37.45 8.65 8.65 0 0 0-1.54-1.89l.13-.18A9.52 9.52 0 0 1 16.24 14a.11.11 0 0 1-.07.17 2.37 2.37 0 0 1-.56.06"/><path class="cls-1" d="M16.14 14.13a10.18 10.18 0 0 1-2.46-1l.11-.2a11 11 0 0 0 1.95.85 9.61 9.61 0 0 0-1.61-1.17l.1-.2a11.63 11.63 0 0 1 2 1.51.12.12 0 0 1 0 .14.12.12 0 0 1-.11.06m7.58 4.38l-8.61-1.51.03-.22 8.62 1.51-.04.22z"/><path class="cls-1" d="M13.16 18.37H13v-.22a2.69 2.69 0 0 0 .93-.09A1.43 1.43 0 0 0 15 16.85c.26-1.46-1.42-2-1.43-2.05l.07-.21s1.87.65 1.58 2.31a1.91 1.91 0 0 1-2.06 1.47"/><path class="cls-1" d="M13 18h-.36v-.22s1.89.18 2.37-.87a2.71 2.71 0 0 0-1.53-1.55l.09-.21a2.82 2.82 0 0 1 1.67 1.74.13.13 0 0 1 0 .07 1.84 1.84 0 0 1-1.52 1A4.17 4.17 0 0 1 13 18"/><path class="cls-1" d="M12.85 17.49h-.35v-.23a5.36 5.36 0 0 0 2.38-.38 8.42 8.42 0 0 0-2.1-1.25l.06-.22a9.44 9.44 0 0 1 2.3 1.39.11.11 0 0 1 0 .09.1.1 0 0 1 0 .09 4.56 4.56 0 0 1-2.31.52"/><path class="cls-1" d="M14.22 17a11.91 11.91 0 0 1-1.76-.15v-.23a10.76 10.76 0 0 0 2.12.13 10 10 0 0 0-1.92-.55v-.22a11.53 11.53 0 0 1 2.41.74.11.11 0 0 1 .07.12.12.12 0 0 1-.1.1 6.7 6.7 0 0 1-.9.06m.98 3.02l-.03-.22 8.61-1.52.04.22-8.62 1.52z"/><path class="cls-1" d="M13.6 22l-.06-.22a2.65 2.65 0 0 0 .84-.4 1.43 1.43 0 0 0 .62-1.45c-.26-1.47-2-1.44-2-1.43v-.23s2 0 2.28 1.62S13.61 22 13.6 22"/><path class="cls-1" d="M13.12 21.8l-.05-.22s1.83-.48 1.93-1.63a2.7 2.7 0 0 0-2-.95v-.23a2.83 2.83 0 0 1 2.16 1.06.12.12 0 0 1 0 .07 1.83 1.83 0 0 1-1.08 1.46 4.45 4.45 0 0 1-1 .42"/><path class="cls-1" d="M12.87 21.37l-.07-.22A5.31 5.31 0 0 0 14.91 20a8.63 8.63 0 0 0-2.4-.45v-.23a9.58 9.58 0 0 1 2.64.51.12.12 0 0 1 .07.07.11.11 0 0 1 0 .1 5.21 5.21 0 0 1-2.33 1.39"/><path class="cls-1" d="M12.63 20.83v-.22a11 11 0 0 0 2-.6 10 10 0 0 0-2 .14l-.05-.22a11.66 11.66 0 0 1 2.52-.13.12.12 0 0 1 .11.09.11.11 0 0 1-.06.13 10.18 10.18 0 0 1-2.53.82m3.58 2.02l-.11-.19 7.57-4.37.11.19-7.57 4.37z"/><path class="cls-1" d="M15.45 25.28l-.13-.19a2.77 2.77 0 0 0 .65-.67 1.43 1.43 0 0 0 .03-1.6 1.59 1.59 0 0 0-1.42-.82 2.87 2.87 0 0 0-.92.16l-.11-.16s1.85-.7 2.69.75-.77 2.56-.79 2.57"/><path class="cls-1" d="M14.92 25.21l-.13-.21s1.57-1 1.21-2.16a2.69 2.69 0 0 0-2.16-.21l-.07-.22a2.84 2.84 0 0 1 2.39.26.13.13 0 0 1 0 .05 1.84 1.84 0 0 1-.52 1.75 4.28 4.28 0 0 1-.81.74"/><path class="cls-1" d="M14.54 24.9l-.13-.18A5.47 5.47 0 0 0 16 22.89a8.56 8.56 0 0 0-2.41.4l-.1-.21a9.43 9.43 0 0 1 2.66-.42.11.11 0 0 1 .09 0 .12.12 0 0 1 0 .1 5.15 5.15 0 0 1-1.72 2.1"/><path class="cls-1" d="M14.14 24.48l-.11-.2a10.83 10.83 0 0 0 1.7-1.28 9.81 9.81 0 0 0-1.81.81l-.12-.19a11.72 11.72 0 0 1 2.32-1 .12.12 0 0 1 .13 0 .12.12 0 0 1 0 .14 10.06 10.06 0 0 1-2.09 1.63m4.02.77l-.17-.14 5.62-6.7.17.15-5.62 6.69z"/><path class="cls-1" d="M18.31 27.69l-.18-.13a2.79 2.79 0 0 0 .38-.85 1.43 1.43 0 0 0-.51-1.53 1.58 1.58 0 0 0-1.66-.26 2.87 2.87 0 0 0-.83.47l-.15-.17s1.51-1.3 2.79-.22.15 2.67.14 2.69"/><path class="cls-1" d="M17.78 27.81l-.18-.13s1.1-1.55.43-2.49a2.72 2.72 0 0 0-2.1.55l-.13-.19a2.82 2.82 0 0 1 2.33-.55.09.09 0 0 1 .06 0 1.83 1.83 0 0 1 .11 1.82 4.23 4.23 0 0 1-.51 1"/><path class="cls-1" d="M17.32 27.65l-.19-.13a5.41 5.41 0 0 0 .87-2.26 8.59 8.59 0 0 0-2.13 1.19l-.16-.16A9.29 9.29 0 0 1 18.05 25a.1.1 0 0 1 .1 0 .11.11 0 0 1 .05.09 5.21 5.21 0 0 1-.89 2.56"/><path class="cls-1" d="M16.79 27.39l-.17-.15a10.5 10.5 0 0 0 1.17-1.77 10.49 10.49 0 0 0-1.43 1.38l-.18-.14A11.74 11.74 0 0 1 18 25a.11.11 0 0 1 .14 0 .11.11 0 0 1 0 .13 10.12 10.12 0 0 1-1.41 2.25m4.1-.73l-.21-.08 2.99-8.21.21.07-2.99 8.22z"/><path class="cls-1" d="M21.81 29l-.22-.07a2.61 2.61 0 0 0 .07-.93 1.44 1.44 0 0 0-1-1.28A1.59 1.59 0 0 0 19 27a2.93 2.93 0 0 0-.62.73l-.2-.11s1-1.73 2.55-1.16S21.82 29 21.81 29"/><path class="cls-1" d="M21.36 29.28l-.22-.06s.51-1.83-.45-2.48A2.69 2.69 0 0 0 18.9 28l-.19-.13a2.82 2.82 0 0 1 2-1.33h.07a1.84 1.84 0 0 1 .72 1.67 4.85 4.85 0 0 1-.15 1.09"/><path class="cls-1" d="M20.87 29.28l-.22-.06a5.37 5.37 0 0 0 0-2.41 8.59 8.59 0 0 0-1.59 1.85l-.2-.09a9.61 9.61 0 0 1 1.77-2 .11.11 0 0 1 .1 0 .12.12 0 0 1 .08.06 5.16 5.16 0 0 1 0 2.71"/><path class="cls-1" d="M20.29 29.21l-.21-.08a10.76 10.76 0 0 0 .5-2.06 10.17 10.17 0 0 0-.87 1.79l-.21-.07a11.84 11.84 0 0 1 1.14-2.24.12.12 0 0 1 .13 0 .12.12 0 0 1 .08.11 9.87 9.87 0 0 1-.55 2.6m3.3-10.87h.23v8.74h-.23z"/><path class="cls-1" d="M21.94 29h-.23s.32-2 2-2 1.83 2 1.84 2h-.23a2.7 2.7 0 0 0-.25-.89 1.43 1.43 0 0 0-1.36-.87C22.23 27.25 22 29 21.94 29"/><path class="cls-1" d="M25 29.44s-.15-1.89-1.27-2.18A2.7 2.7 0 0 0 22.47 29h-.22a2.84 2.84 0 0 1 1.42-2h.07A1.86 1.86 0 0 1 25 28.35a4.59 4.59 0 0 1 .23 1.07z"/><path class="cls-1" d="M24.53 29.62a5.39 5.39 0 0 0-.79-2.28 8.34 8.34 0 0 0-.86 2.28h-.23a9.25 9.25 0 0 1 1-2.51.11.11 0 0 1 .05-.11.11.11 0 0 1 .1 0 5.16 5.16 0 0 1 1 2.53z"/><path class="cls-1" d="M24 29.73a10.77 10.77 0 0 0-.23-2.11 9.77 9.77 0 0 0-.2 2h-.27a11.9 11.9 0 0 1 .31-2.5.12.12 0 0 1 .11-.09.12.12 0 0 1 .11.08 10.1 10.1 0 0 1 .37 2.63zm2.6-3.08l-2.99-8.22.21-.07 2.99 8.21-.21.08z"/><path class="cls-1" d="M25.46 29s-.38-2 1.2-2.53 2.39 1.21 2.4 1.23l-.21.09a2.76 2.76 0 0 0-.55-.76 1.43 1.43 0 0 0-1.57-.35c-1.39.51-1.06 2.25-1.06 2.27z"/><path class="cls-1" d="M26 28.84a2.84 2.84 0 0 1 .67-2.31h.06a1.83 1.83 0 0 1 1.63.81 4.3 4.3 0 0 1 .58.92l-.21.09s-.79-1.73-1.94-1.61a2.69 2.69 0 0 0-.58 2.1z"/><path class="cls-1" d="M26.55 29.29a9.66 9.66 0 0 1 0-2.69.12.12 0 0 1 .06-.09.14.14 0 0 1 .1 0 5.17 5.17 0 0 1 1.77 2.06l-.2.1a5.35 5.35 0 0 0-1.52-1.87 8.53 8.53 0 0 0 0 2.44z"/><path class="cls-1" d="M27.16 29.08a11.9 11.9 0 0 1-.57-2.45.13.13 0 0 1 .07-.12.12.12 0 0 1 .13 0A10 10 0 0 1 28 28.89l-.21.08a10.79 10.79 0 0 0-.94-1.9 9.77 9.77 0 0 0 .52 1.93zm2.09-3.92l-5.62-6.69.17-.15 5.62 6.7-.17.14z"/><path class="cls-1" d="M29 27.79s-1-1.71.27-2.78 2.66.32 2.67.33l-.16.16A2.64 2.64 0 0 0 31 25a1.43 1.43 0 0 0-1.6.21c-1.14 1-.23 2.48-.22 2.5z"/><path class="cls-1" d="M29.39 27.44a2.8 2.8 0 0 1-.16-2.4 1.85 1.85 0 0 1 1.81.21 4.62 4.62 0 0 1 .87.68l-.11.07s-1.33-1.36-2.38-.85a2.71 2.71 0 0 0 .17 2.17z"/><path class="cls-1" d="M30.1 27.66a9.53 9.53 0 0 1-.88-2.55.12.12 0 0 1 .13-.14 5.12 5.12 0 0 1 2.36 1.32l-.15.16a5.43 5.43 0 0 0-2.08-1.24 8.52 8.52 0 0 0 .8 2.3z"/><path class="cls-1" d="M30.6 27.26a12.09 12.09 0 0 1-1.37-2.11.11.11 0 0 1 0-.14.12.12 0 0 1 .14 0 10.15 10.15 0 0 1 2 1.78l-.18.14a10.66 10.66 0 0 0-1.53-1.46 9.89 9.89 0 0 0 1.11 1.64zm.63-4.4l-7.57-4.37.11-.19 7.58 4.37-.12.19z"/><path class="cls-1" d="M31.89 25.42s-1.54-1.26-.7-2.71 2.61-.61 2.63-.61l-.1.21a2.48 2.48 0 0 0-.9-.23 1.43 1.43 0 0 0-1.43.74c-.74 1.29.63 2.41.65 2.42z"/><path class="cls-1" d="M32.15 25a2.82 2.82 0 0 1-1-2.2.16.16 0 0 1 0-.07 1.86 1.86 0 0 1 1.85-.46 4.58 4.58 0 0 1 1 .33l-.1.21s-1.71-.82-2.52 0a2.68 2.68 0 0 0 .9 2z"/><path class="cls-1" d="M32.89 24.92a9.49 9.49 0 0 1-1.69-2.09.1.1 0 0 1 0-.1.1.1 0 0 1 .08-.07 5.15 5.15 0 0 1 2.68.43l-.09.21a5.36 5.36 0 0 0-2.37-.45 8.55 8.55 0 0 0 1.5 1.88z"/><path class="cls-1" d="M33.22 24.37a12.07 12.07 0 0 1-2-1.51.12.12 0 0 1 0-.14.11.11 0 0 1 .12-.06 10.16 10.16 0 0 1 2.46 1l-.11.2a10.75 10.75 0 0 0-1.97-.86 9.67 9.67 0 0 0 1.61 1.17zm-.91-4.35L23.7 18.5l.04-.22 8.61 1.52-.04.22z"/><path class="cls-1" d="M33.8 22.2s-1.88-.65-1.59-2.31 2.24-1.46 2.26-1.46v.23a2.65 2.65 0 0 0-.92.09 1.43 1.43 0 0 0-1.09 1.19c-.26 1.46 1.41 2 1.43 2.05z"/><path class="cls-1" d="M33.88 21.67a2.85 2.85 0 0 1-1.67-1.74.16.16 0 0 1 0-.07 1.84 1.84 0 0 1 1.52-1 4.15 4.15 0 0 1 1.09 0v.22s-1.89-.18-2.37.87A2.71 2.71 0 0 0 34 21.47z"/><path class="cls-1" d="M34.56 21.39a9.46 9.46 0 0 1-2.3-1.39.12.12 0 0 1 0-.09.11.11 0 0 1 .05-.09 5.12 5.12 0 0 1 2.66-.51v.23a5.31 5.31 0 0 0-2.38.39 8.78 8.78 0 0 0 2.1 1.25z"/><path class="cls-1" d="M34.69 20.75a11.49 11.49 0 0 1-2.41-.75.11.11 0 0 1-.07-.12.12.12 0 0 1 .1-.1 10 10 0 0 1 2.65.09v.22a11 11 0 0 0-2.15-.09 10.1 10.1 0 0 0 1.91.55zm-8.48-3.09l-.01-.23 8.74-.35.01.23-8.74.35z"/><path class="cls-1" d="M36.87 19.12s-2-.24-2-1.91 1.88-1.91 1.9-1.91v.23a2.65 2.65 0 0 0-.89.29 1.42 1.42 0 0 0-.81 1.39c.06 1.48 1.82 1.7 1.84 1.7z"/><path class="cls-1" d="M36.84 18.59a2.82 2.82 0 0 1-2-1.34.14.14 0 0 1 0-.07 1.85 1.85 0 0 1 1.27-1.3 4.7 4.7 0 0 1 1.06-.28v.23s-1.89.22-2.13 1.35a2.69 2.69 0 0 0 1.82 1.19z"/><path class="cls-1" d="M37.44 18.16a9.64 9.64 0 0 1-2.55-.86.12.12 0 0 1-.06-.08.11.11 0 0 1 0-.1 5.09 5.09 0 0 1 2.5-1.06v.22a5.44 5.44 0 0 0-2.25.88 8.63 8.63 0 0 0 2.31.77z"/><path class="cls-1" d="M37 17.53a13.6 13.6 0 0 1-2.12-.22.12.12 0 0 1 0-.22 10 10 0 0 1 2.61-.47v.23a10.8 10.8 0 0 0-2.1.32 10 10 0 0 0 2 .13v.22H37"/><path class="cls-1" transform="rotate(-16.49 32.649 13.68)" d="M28.28 13.58h8.75v.22h-8.75z"/><path class="cls-1" d="M38.88 13.85a2.08 2.08 0 0 1-2.14-1.37c-.48-1.61 1.35-2.31 1.37-2.32l.08.21a2.7 2.7 0 0 0-.79.5 1.43 1.43 0 0 0-.4 1.55 1.61 1.61 0 0 0 1.25 1.13 2.86 2.86 0 0 0 .95.06v.22h-.3"/><path class="cls-1" d="M38.86 13.33a2.78 2.78 0 0 1-2.11-.81.14.14 0 0 1 0-.07 1.86 1.86 0 0 1 .91-1.58 4.49 4.49 0 0 1 1-.53l.08.21s-1.77.68-1.73 1.84a2.67 2.67 0 0 0 2.06.7v.23h-.16"/><path class="cls-1" d="M38.94 12.81a13.14 13.14 0 0 1-2.12-.25.12.12 0 0 1-.08-.07.11.11 0 0 1 0-.1 5.1 5.1 0 0 1 2.15-1.64L39 11a5.33 5.33 0 0 0-2 1.41 8.44 8.44 0 0 0 2.43.18v.22a3 3 0 0 1-.56 0"/><path class="cls-1" d="M36.84 12.56a.11.11 0 0 1-.07-.21 10.11 10.11 0 0 1 2.42-1.11l.06.22a10.87 10.87 0 0 0-2 .83 9.72 9.72 0 0 0 2-.37l.07.22a11.81 11.81 0 0 1-2.48.42zm-11.22 4.03l-.17-.15 5.62-6.7.17.15-5.62 6.7z"/><path class="cls-1" d="M32.23 10.33a1.75 1.75 0 0 1-1.15-.43c-1.29-1.09-.15-2.68-.14-2.69l.18.13a2.62 2.62 0 0 0-.38.85 1.42 1.42 0 0 0 .48 1.53 1.6 1.6 0 0 0 1.66.26 2.76 2.76 0 0 0 .83-.48l.15.17a2.81 2.81 0 0 1-1.64.65"/><path class="cls-1" d="M31.64 10a2 2 0 0 1-.51-.06.11.11 0 0 1-.06 0A1.84 1.84 0 0 1 31 8.07a4.54 4.54 0 0 1 .51-1l.18.13s-1.1 1.55-.43 2.49a2.69 2.69 0 0 0 2.11-.55l.13.19a3.1 3.1 0 0 1-1.82.63"/><path class="cls-1" d="M31.16 9.93h-.06a.11.11 0 0 1-.1-.11 5.11 5.11 0 0 1 .89-2.56l.19.12a5.46 5.46 0 0 0-.86 2.26 8.51 8.51 0 0 0 2.13-1.19l.16.16a9.7 9.7 0 0 1-2.31 1.31"/><path class="cls-1" d="M31.16 9.93h-.07a.12.12 0 0 1 0-.13 10 10 0 0 1 1.41-2.25l.17.15a10.73 10.73 0 0 0-1.17 1.76 9.75 9.75 0 0 0 1.43-1.38l.18.14a11.51 11.51 0 0 1-1.84 1.72.1.1 0 0 1-.07 0m-7.38 8.49l-.21-.07 2.99-8.22.21.08-2.99 8.21z"/><path class="cls-1" d="M27.31 10.4a1.84 1.84 0 0 1-.64-.11c-1.59-.58-1.06-2.46-1-2.48l.22.07a2.62 2.62 0 0 0-.07.93 1.43 1.43 0 0 0 1 1.27 1.6 1.6 0 0 0 1.65-.32A3 3 0 0 0 29 9l.2.11a2.51 2.51 0 0 1-1.91 1.28"/><path class="cls-1" d="M26.71 10.29h-.06a1.84 1.84 0 0 1-.72-1.67 4.25 4.25 0 0 1 .15-1.09l.22.06s-.51 1.83.45 2.48a2.69 2.69 0 0 0 1.79-1.23l.19.13a2.84 2.84 0 0 1-2 1.34z"/><path class="cls-1" d="M26.71 10.29a.14.14 0 0 1-.08-.07 5.12 5.12 0 0 1 0-2.72l.22.05a5.44 5.44 0 0 0 0 2.42 8.43 8.43 0 0 0 1.59-1.85l.21.1a9.41 9.41 0 0 1-1.77 2 .13.13 0 0 1-.07 0"/><path class="cls-1" d="M26.71 10.29a.12.12 0 0 1-.08-.11 9.91 9.91 0 0 1 .56-2.59l.21.07a10.61 10.61 0 0 0-.5 2.06 9.93 9.93 0 0 0 .87-1.79l.22.07a11.7 11.7 0 0 1-1.15 2.24.1.1 0 0 1-.09.05m-2.36 8.1a.73.73 0 1 1-.73-.73.73.73 0 0 1 .73.73"/><path class="cls-1" d="M23.18 46.2a52 52 0 0 1-2.38-10 36.92 36.92 0 0 1-.19-9.09 20.15 20.15 0 0 1 3-8.82l.31.21A19.81 19.81 0 0 0 21 27.15a36.59 36.59 0 0 0 .19 9 51.59 51.59 0 0 0 2.36 9.91z"/></g></g></svg>