<svg xmlns="http://www.w3.org/2000/svg" viewBox="0 0 51.6 51.6"><defs><style>.cls-1,.cls-2{fill:#fff}.cls-2{fill-rule:evenodd}</style></defs><title>dogs</title><g id="Шар_2" data-name="Шар 2"><g id="Layer_1" data-name="Layer 1"><path class="cls-1" d="M25.8 51.6a25.8 25.8 0 1 1 25.8-25.8 25.83 25.83 0 0 1-25.8 25.8zm0-50.69A24.89 24.89 0 1 0 50.69 25.8 24.91 24.91 0 0 0 25.8.91z"/><path class="cls-2" d="M22.06 43.05a2.47 2.47 0 0 1-1-.2l-.13-.06v-.13a1 1 0 0 1 .06-.79.93.93 0 0 1 .65-.39c.16 0 .37-.12.47-.57a17.43 17.43 0 0 0 .48-5.74 3.84 3.84 0 0 0-.87-1.92A2.92 2.92 0 0 1 20.9 31a6.48 6.48 0 0 1 .36-1.24l.08-.23a3.81 3.81 0 0 0 .32-1.75.48.48 0 0 0-.49-.49c-1.14-.15-1.38-.38-1.61-1.53a.71.71 0 0 1 .39-.86 1.87 1.87 0 0 0 .59-.65l.11-.16a2.42 2.42 0 0 1 1.21-1c.06 0 .08 0 .07-.3a2.54 2.54 0 0 0-.06-.41c0-.09 0-.18-.05-.27a.55.55 0 0 1 .1-.46l.09-.1h.23a.69.69 0 0 1 .33.1 2.14 2.14 0 0 1 .54.47l-.06-.75.41.11a1.07 1.07 0 0 1 .69.65l.12.23a.86.86 0 0 0 .3.39 3.16 3.16 0 0 1 1.56 2.79v.64a5.31 5.31 0 0 0 .13 1.19 5 5 0 0 0 1.72 2.3l.17.15.19.15c0 .07 0 .13.17.26a25.48 25.48 0 0 1 3.63 4.31 6.35 6.35 0 0 1 .84 5.21 2.74 2.74 0 0 0 .84-2.93 10.84 10.84 0 0 0-1.2-2.51l-.39-.68a7.18 7.18 0 0 1-1-2.6 3.81 3.81 0 0 1 2.11-4 3.56 3.56 0 0 1 1.25-.23 2.54 2.54 0 0 1 2.31 1.1A1.18 1.18 0 0 1 37 29a.82.82 0 0 1-.75.52.8.8 0 0 1-.42-.12 3.44 3.44 0 0 1-.57-.46 1.36 1.36 0 0 0-.94-.41 1.32 1.32 0 0 0-1.19.87 3.2 3.2 0 0 0 .47 3.09c.29.48.59.95.9 1.42s.45.69.67 1a2.67 2.67 0 0 1 .3.74c.76 2.84-.37 5.18-2.94 6.1A4.7 4.7 0 0 1 29.17 43h-1.38a13.89 13.89 0 0 1-2.55-.2c-.18 0-.54-.05-.57-.48 0-.7.52-.89.87-1s.54-.27.41-.76a6 6 0 0 0-1.18-2.13v.23A10.08 10.08 0 0 1 23.64 42a2.62 2.62 0 0 0-.33.77v.2h-.2a7.34 7.34 0 0 1-1 .1"/><path class="cls-2" d="M20.81 41.79a1.06 1.06 0 0 1 .74-.45c.08 0 .27-.05.36-.46a17.28 17.28 0 0 0 .48-5.7 3.7 3.7 0 0 0-.84-1.85 3 3 0 0 1-.78-2.4 6.44 6.44 0 0 1 .36-1.25l.09-.24a3.71 3.71 0 0 0 .32-1.69c0-.26-.11-.33-.37-.37-1.2-.16-1.49-.44-1.72-1.64a.85.85 0 0 1 .46-1 1.76 1.76 0 0 0 .54-.59l.11-.17a2.56 2.56 0 0 1 1.26-1.09 1.64 1.64 0 0 0 0-.17 2.4 2.4 0 0 0-.06-.38c0-.1 0-.19-.05-.28a.67.67 0 0 1 .13-.57l.12-.14h.28a.83.83 0 0 1 .41.11 1.72 1.72 0 0 1 .34.25v-.56l.59.16a1.2 1.2 0 0 1 .78.72l.12.22a.8.8 0 0 0 .24.34 3.28 3.28 0 0 1 1.64 2.9v.65a5.15 5.15 0 0 0 .13 1.16 5 5 0 0 0 1.68 2.24l.1.08a12.75 12.75 0 0 0 1.28-3.44 14.05 14.05 0 0 0-.5-6.13 2.67 2.67 0 0 1 1.58-3.23 6.63 6.63 0 0 1 2.21-.36 2.24 2.24 0 0 0 2.26-1.8c.08-.23 0-.33-.2-.42-.59-.24-1.17-.49-1.73-.79s-.93-.42-1.07-.89a2.14 2.14 0 0 0-1.22-1.28.31.31 0 0 1-.19-.39 4.19 4.19 0 0 0-.31-2.52c0-.09-.07-.24-.2-.21s-.14.15-.18.24c-.12.35-.23.72-.38 1.19-.19-.5-.34-.89-.5-1.28 0-.1-.08-.27-.22-.25a.34.34 0 0 0-.2.26 6.66 6.66 0 0 1-.3 1.2 2.5 2.5 0 0 1-1.11 1.76 1.55 1.55 0 0 0-.67.84 13.85 13.85 0 0 1-3.37 5.65 6 6 0 0 0-1.3 1.77A28.42 28.42 0 0 1 20 23a16 16 0 0 0-2.4 6.71 3.82 3.82 0 0 1-1.32 2.65 2.42 2.42 0 0 0-.71 1 9.59 9.59 0 0 0-.36 4.84 8.77 8.77 0 0 0 .88 2.61 2.22 2.22 0 0 1-1.23-.33 4.4 4.4 0 0 1-2.31-4.09 5.53 5.53 0 0 1 1.7-4.26c.21-.21.48-.44.3-.77s-.54-.27-.85-.21a2.38 2.38 0 0 0-1.43 1.09 9.1 9.1 0 0 0-1.19 3.08 5.53 5.53 0 0 0-.08 2.44 6.58 6.58 0 0 0 .83 2.17 6.1 6.1 0 0 0 3.5 2.66 11.32 11.32 0 0 0 1.9.38 4.39 4.39 0 0 0 1.56 0 10.14 10.14 0 0 1 1.92-.35 1.07 1.07 0 0 1 .1-.83z"/></g></g></svg>