<svg xmlns="http://www.w3.org/2000/svg" viewBox="0 0 51.6 51.6"><defs><style>.cls-1,.cls-2{fill:#fff}.cls-2{fill-rule:evenodd}</style></defs><title>man</title><g id="Шар_2" data-name="Шар 2"><g id="Layer_1" data-name="Layer 1"><path class="cls-1" d="M25.8 51.6a25.8 25.8 0 1 1 25.8-25.8 25.83 25.83 0 0 1-25.8 25.8zm0-50.69A24.89 24.89 0 1 0 50.69 25.8 24.91 24.91 0 0 0 25.8.91z"/><path class="cls-2" d="M13.89 39.54l-.23-.12v-5a.06.06 0 0 0 0-.07 7.48 7.48 0 0 0 3.12-.19 18 18 0 0 0 5.6-3.08c1.79-1.46 3.47-3 5.17-4.59a2.17 2.17 0 0 1 1.9-.84 2.32 2.32 0 0 0 1.46-.42 12.22 12.22 0 0 0 1.86-1.56c.3-.25.6-.47 1-.13s.7.46 1.06.09.27-.68-.24-1.1c-.2-.17-.35-.35-.11-.54.58-.44.26-.73-.14-1s-.67-.36-.43-.85c0-.1-.06-.21-.15-.28-.43-.31-1-.37-1.11-1.15-.08-.56-1.92-.74-2.44-.35-.19.14-.4.33-.63.09s-.65-.22-1 0-.7.55-1.07.79a2.58 2.58 0 0 0-1.08 2.36v.66a.73.73 0 0 1-.36.64 54.76 54.76 0 0 1-4.93 3L19 27.08c-.17.09-.32.26-.22.45s.25 0 .37 0c2.23-1.16 4.39-2.44 6.51-3.77.78-.49 1.47-1 1.28-2.05a1.7 1.7 0 0 1 0-.38 1.67 1.67 0 0 1 .63-1.56c.49-.33 1-.69 1.47-1 .18-.1.27 0 .39.11a.15.15 0 0 1 .06.23c-.07.13-.3.26-.06.4s.28-.12.39-.22a3.11 3.11 0 0 0 .33-.38 1.45 1.45 0 0 1 2-.07c.07.07.15.13.1.23s-.14.11-.23.11c-.31 0-.63.05-.94.06s-.37 0-.38.27-.1.6.12.78.41 0 .57-.19a1.27 1.27 0 0 1 1.92 0c.06 0 .13.08.1.18a.12.12 0 0 1-.17.09c-.77-.36-1.08.34-1.54.69-.09.07-.26.16-.14.3a.27.27 0 0 0 .4 0 .92.92 0 0 0 .32-.37.52.52 0 0 1 .59-.28 7.84 7.84 0 0 1 1.32.67c.23.14.1.31 0 .46s-.24.23-.4 0a1.44 1.44 0 0 0-.29-.25c-.26-.18-.57-.41-.84-.1s-.64.4-.47.79.56.14.85.19a1.07 1.07 0 0 0 .33 0 1.07 1.07 0 0 1 1 .38c.15.17.37.27.17.54s-.41.12-.61 0a1 1 0 0 0-1.43.11c-.25.24-.48.51-.73.75a3.14 3.14 0 0 1-3 1.11.54.54 0 0 0-.5.11 20.38 20.38 0 0 0-2 1.74c-2.37 2.07-4.6 4.32-7.46 5.75a7.9 7.9 0 0 1-5 1l-.2-.14a10.11 10.11 0 0 1-1.67-4.28 14.43 14.43 0 0 1 .4-7.36c.11-.35.18-.71.26-1.07a1.16 1.16 0 0 0 .13-.3c.08-.6.41-.59.9-.46a18.3 18.3 0 0 0 2.06.43 2.13 2.13 0 0 1 1.6.8c.46.63 1 .55 1.4-.13a.6.6 0 0 1 .65-.38h.6a2.91 2.91 0 0 0 2.74-1.24 4.21 4.21 0 0 0 .66-4c-.08-.2-.07-.31.14-.38h5.87l1 .07A9 9 0 0 1 36 17.81l.16.16.1.1a.9.9 0 0 1 .19.67v20.11c0 .48-.1.67-.63.66h-4.48c-.18-.23-.11-.5-.11-.75V28.68c0-.15-.08-.2-.21-.2s-.27 0-.28.18 0 .33 0 .5v9.48c0 .85 0 .85-.85.86h-16m9.89-18.9c0 .16.07.33.08.49s0 .27.21.23.08-.17.06-.29-.13-.43.07-.61a2.16 2.16 0 0 0 .57-1.42 1.2 1.2 0 0 1 .6-1.06 5.79 5.79 0 0 0 .76-.55c.08-.06.14-.14.08-.23s-.15-.07-.25-.05a2.9 2.9 0 0 0-1.34 1.35c-.18.66-.12 1.42-.76 1.89a.28.28 0 0 0-.08.3M31.89 27a2.43 2.43 0 0 0 2.29-1.65c.05-.16.23-.35 0-.46s-.31.15-.35.31a1.78 1.78 0 0 1-1.65 1.38 2.7 2.7 0 0 0-.31.1c-.11 0-.22.08-.2.22s.15.13.25.11m-4.53-9.26a2.08 2.08 0 0 0-1.7 2.63c0 .15 0 .42.21.4s.15-.31.1-.45c-.35-1 .15-1.64 1-2.13.17-.1.4-.18.43-.45M33 28.19a2.79 2.79 0 0 0 2.18-1.72c0-.1 0-.18-.07-.24a.17.17 0 0 0-.24 0 2.54 2.54 0 0 0-.32.57.94.94 0 0 1-.75.71 6.91 6.91 0 0 0-.84.26.22.22 0 0 0-.16.26.16.16 0 0 0 .21.12m-4.15 1.22c-.16.41-.29.69-.66.63s-.35-.31-.28-.58c0-.1 0-.13-.13-.12s-.15.1-.16.19a.6.6 0 0 0 .19.65.76.76 0 0 0 .88 0c.23-.14.36-.35.17-.79M28.62 28c-.13-.22-.53-.19-.41-.47s.35-.1.53 0c0 0 .11 0 .13-.06a.21.21 0 0 0-.09-.29c-.22-.12-.46-.26-.71-.08a.46.46 0 0 0-.16.63.48.48 0 0 0 .72.24m-5.39-4.93c-.23-.17-.56-.09-.74-.33s.14-.51 0-.78c-.41.3-.52.58-.34.87a.74.74 0 0 0 1 .25m4.94 10.54c-.41-.2-.82-.24-.78-.71s.49-.42.74-.77a1 1 0 0 0-1 .52.62.62 0 0 0 0 .73.73.73 0 0 0 1 .23m-5.93-8.82c-.05-.25-.5-.18-.33-.52s.44-.07.54-.37a.72.72 0 0 0-.81.17c-.17.15-.1.39 0 .57s.34.26.6.15M26 31.59c-.64-.22-.65-.22-.24-.72.06-.08.12-.15.06-.24a.21.21 0 0 0-.19-.06.7.7 0 0 0-.49.48c-.07.25.12.42.29.55s.36.31.57 0m-1.56 1.7a.56.56 0 0 0-.86.14.52.52 0 0 0 .16.77c.1.07.21.21.33.07s0-.19-.13-.25a.3.3 0 0 1-.15-.42.32.32 0 0 1 .37-.18.25.25 0 0 0 .29-.14m4.27-.2c0-.12 0-.2-.14-.21s-.28.2-.36.35 0 .17.14.17.31-.15.36-.31"/><path class="cls-2" d="M17.06 11.61c.12-.41.43-.49.81-.49a1.72 1.72 0 0 1 1.83 1.51c0 .27.15.32.32.42.39.24.77.49 1.17.71a4.12 4.12 0 0 1 1.44 1.39c.07.17.13.34.2.51a3.93 3.93 0 0 1-1 4.55 2 2 0 0 1-1.68.54h-1.11a.7.7 0 0 0-.74.45c-.25.53-.67.54-1 0a1.27 1.27 0 0 0-1-.62c-.31 0-.63-.06-.93-.12a8.53 8.53 0 0 1-3.16-.91c-.13-.3 0-.54.17-.78.29-.53.59-1.06.9-1.58.19-.31.22-.54-.15-.72s-.47-.5-.16-.85c.08-.1.12-.23.19-.34a6.22 6.22 0 0 1 4-2.94.85.85 0 0 1-.17-.73m-.47 6.16l-.11-.06.22-.84c0-.15.19-.33-.08-.39s-.25.12-.32.29a5.1 5.1 0 0 1-.23 1.18c-.32-.43-.48-.91-.94-1.16a5.8 5.8 0 0 0 1 1.6c.11.12.29 0 .4-.07.37-.31.72-.63 1.07-1a.23.23 0 0 0 .06-.19c-.06-.1-.16-.07-.24 0l-.7.61m4.28 1.08a.44.44 0 0 0 0-.54c-.45-.66-.59-1.26.25-1.73.07 0 .15-.13.09-.23a.2.2 0 0 0-.13-.08c-.3 0-1.08.83-1 1.11a5.3 5.3 0 0 0 .78 1.48"/><path class="cls-2" d="M11.66 19.33a4.93 4.93 0 0 1-1.24-2.77 4.19 4.19 0 0 1 2.25-4.08 4.3 4.3 0 0 1 2.79-.37c.15 0 .38 0 .4.2s-.22.21-.35.3a9.29 9.29 0 0 0-2.88 3c-.24.43-.34.83.24 1.08.13.05.32.13.22.31a11.84 11.84 0 0 1-1.44 2.32m25.29-2.95a1.24 1.24 0 0 1 .32.11c.27.17.52.27.79 0 .08-.07.23-.18.32 0s.07.28 0 .36c-.32.22-.63.57-1.07.26s-.62-.35-.84.13a.21.21 0 0 1-.32.1c-.12-.08 0-.2 0-.3a.76.76 0 0 1 .85-.65m.01 2.38c-.34 0-.29-.21-.21-.42l.19-.17.23-.12c.38 0 .72.06.87.48a.32.32 0 0 1-.09.39.24.24 0 0 1-.35 0 .51.51 0 0 0-.68-.08m-4.31 3.3c.09-.23.15-.42.42-.35.09 0 .2.12.16.19s-.34.15-.58.16"/><path class="cls-1" d="M30.62 15a.3.3 0 0 1-.3-.27 4.46 4.46 0 0 0-.27-1.14 1 1 0 0 1 .37-1.27.88.88 0 0 0 .32-.39.65.65 0 0 0-.13-.68.3.3 0 0 1 0-.42.29.29 0 0 1 .41 0 1.24 1.24 0 0 1 .31 1.3 1.41 1.41 0 0 1-.51.67c-.24.2-.32.27-.2.6a5 5 0 0 1 .3 1.31.3.3 0 0 1-.27.32zm2.32.75a.3.3 0 0 1-.12-.56 2.25 2.25 0 0 0 .32-1.27 1.36 1.36 0 0 1 .86-1.3 4.2 4.2 0 0 0 .38-.24c.34-.25.27-.43.26-.45a.3.3 0 0 1 .12-.4.29.29 0 0 1 .39.1c.14.22.22.76-.42 1.23a5.08 5.08 0 0 1-.44.27c-.38.21-.55.31-.56.79 0 .88-.3 1.62-.66 1.79zm2.12.35H35a.3.3 0 0 1-.2-.37c.17-.58.7-1.53 1.48-1.37l.32.07c.37.08.93.2 1 .1a.3.3 0 1 1 .43.4c-.32.34-.88.23-1.58.08l-.31-.06c-.38-.07-.73.74-.8 1a.3.3 0 0 1-.28.15z"/></g></g></svg>